<svg width="53" height="62" viewBox="0 0 53 62" fill="none" xmlns="http://www.w3.org/2000/svg">
<path d="M2.14749 5.34867C2.14749 5.13802 2.14749 5.03269 2.18191 4.94961C2.22779 4.83883 2.31581 4.75082 2.42658 4.70493C2.50967 4.67052 2.615 4.67052 2.82565 4.67052H11.6417C11.8524 4.67052 11.9577 4.67052 12.0408 4.70493C12.1516 4.75082 12.2396 4.83883 12.2855 4.94961C12.3199 5.03269 12.3199 5.13802 12.3199 5.34868V51.0114C12.3199 56.6295 7.76555 61.1838 2.14749 61.1838V61.1838V5.34867Z" fill="#261CDD"/>
<rect x="7.19296" y="4.67052" width="36.8794" height="10.1724" rx="5.0862" transform="rotate(45 7.19296 4.67052)" fill="#261CDD"/>
<path d="M49.8855 5.34867C49.8855 5.13802 49.8855 5.03269 49.8511 4.94961C49.8052 4.83883 49.7172 4.75082 49.6064 4.70493C49.5234 4.67052 49.418 4.67052 49.2074 4.67052H40.3913C40.1806 4.67052 40.0753 4.67052 39.9922 4.70493C39.8814 4.75082 39.7934 4.83883 39.7475 4.94961C39.7131 5.03269 39.7131 5.13802 39.7131 5.34868V51.0114C39.7131 56.6295 44.2675 61.1838 49.8855 61.1838V61.1838V5.34867Z" fill="#261CDD"/>
<rect width="36.8794" height="10.1724" rx="5.0862" transform="matrix(-0.707107 0.707107 0.707107 0.707107 44.8401 4.67052)" fill="#261CDD"/>
<path d="M28.935 6.08281C28.935 7.75331 27.5808 9.10751 25.9103 9.10751C24.2398 9.10751 22.8856 7.75331 22.8856 6.08281C22.8856 4.41232 24.2398 -3.8147e-06 25.9103 -3.8147e-06C27.5808 -3.8147e-06 28.935 4.41232 28.935 6.08281Z" fill="#261CDD"/>
<path d="M30.7187 43.9984C30.7187 46.6541 28.5659 48.8069 25.9102 48.8069C23.2546 48.8069 21.1017 46.6541 21.1017 43.9984C21.1017 41.3428 23.2546 34.3283 25.9102 34.3283C28.5659 34.3283 30.7187 41.3428 30.7187 43.9984Z" fill="#261CDD"/>
</svg>
