<svg width="518" height="412" viewBox="0 0 518 412" fill="none" xmlns="http://www.w3.org/2000/svg">
<path d="M157.196 22.904C157.196 22.0019 157.196 21.5509 157.343 21.1951C157.54 20.7208 157.917 20.3439 158.391 20.1474C158.747 20 159.198 20 160.1 20H197.852C198.754 20 199.205 20 199.561 20.1474C200.035 20.3439 200.412 20.7208 200.609 21.1951C200.756 21.5509 200.756 22.0019 200.756 22.904V218.44C200.756 242.498 181.253 262 157.196 262V262V22.904Z" fill="#261CDD"/>
<rect x="178.802" y="20" width="157.924" height="43.56" rx="21.78" transform="rotate(45 178.802 20)" fill="#261CDD"/>
<path d="M361.619 22.904C361.619 22.0019 361.619 21.5509 361.471 21.1951C361.275 20.7208 360.898 20.3439 360.424 20.1474C360.068 20 359.617 20 358.715 20H320.963C320.061 20 319.61 20 319.254 20.1474C318.78 20.3439 318.403 20.7208 318.206 21.1951C318.059 21.5509 318.059 22.0019 318.059 22.904V218.44C318.059 242.498 337.561 262 361.619 262V262V22.904Z" fill="#261CDD"/>
<rect width="157.924" height="43.56" rx="21.78" transform="matrix(-0.707107 0.707107 0.707107 0.707107 340.013 20)" fill="#261CDD"/>
<path d="M271.905 26.0477C271.905 33.2011 266.106 39 258.952 39C251.799 39 246 33.2011 246 26.0477C246 18.8944 251.799 0 258.952 0C266.106 0 271.905 18.8944 271.905 26.0477Z" fill="#261CDD"/>
<path d="M279.543 188.409C279.543 199.781 270.324 209 258.952 209C247.58 209 238.361 199.781 238.361 188.409C238.361 177.037 247.58 147 258.952 147C270.324 147 279.543 177.037 279.543 188.409Z" fill="#261CDD"/>
<path d="M9.96 382V298H26.04L61.8 357.28H53.28L88.44 298H104.4L104.64 382H86.4L86.28 325.96H89.64L61.56 373.12H52.8L24.12 325.96H28.2V382H9.96ZM155.289 382.96C147.929 382.96 141.449 381.52 135.849 378.64C130.329 375.76 126.049 371.84 123.009 366.88C119.969 361.84 118.449 356.12 118.449 349.72C118.449 343.24 119.929 337.52 122.889 332.56C125.929 327.52 130.049 323.6 135.249 320.8C140.449 317.92 146.329 316.48 152.889 316.48C159.209 316.48 164.889 317.84 169.929 320.56C175.049 323.2 179.089 327.04 182.049 332.08C185.009 337.04 186.489 343 186.489 349.96C186.489 350.68 186.449 351.52 186.369 352.48C186.289 353.36 186.209 354.2 186.129 355H133.689V344.08H176.289L169.089 347.32C169.089 343.96 168.409 341.04 167.049 338.56C165.689 336.08 163.809 334.16 161.409 332.8C159.009 331.36 156.209 330.64 153.009 330.64C149.809 330.64 146.969 331.36 144.489 332.8C142.089 334.16 140.209 336.12 138.849 338.68C137.489 341.16 136.809 344.12 136.809 347.56V350.44C136.809 353.96 137.569 357.08 139.089 359.8C140.689 362.44 142.889 364.48 145.689 365.92C148.569 367.28 151.929 367.96 155.769 367.96C159.209 367.96 162.209 367.44 164.769 366.4C167.409 365.36 169.809 363.8 171.969 361.72L181.929 372.52C178.969 375.88 175.249 378.48 170.769 380.32C166.289 382.08 161.129 382.96 155.289 382.96ZM226.673 382.96C220.593 382.96 215.113 381.6 210.233 378.88C205.353 376.08 201.473 372.2 198.593 367.24C195.793 362.28 194.393 356.44 194.393 349.72C194.393 342.92 195.793 337.04 198.593 332.08C201.473 327.12 205.353 323.28 210.233 320.56C215.113 317.84 220.593 316.48 226.673 316.48C232.113 316.48 236.873 317.68 240.953 320.08C245.033 322.48 248.193 326.12 250.433 331C252.673 335.88 253.793 342.12 253.793 349.72C253.793 357.24 252.713 363.48 250.553 368.44C248.393 373.32 245.273 376.96 241.193 379.36C237.193 381.76 232.353 382.96 226.673 382.96ZM229.913 367.6C232.953 367.6 235.713 366.88 238.193 365.44C240.673 364 242.633 361.96 244.073 359.32C245.593 356.6 246.353 353.4 246.353 349.72C246.353 345.96 245.593 342.76 244.073 340.12C242.633 337.48 240.673 335.44 238.193 334C235.713 332.56 232.953 331.84 229.913 331.84C226.793 331.84 223.993 332.56 221.513 334C219.033 335.44 217.033 337.48 215.513 340.12C214.073 342.76 213.353 345.96 213.353 349.72C213.353 353.4 214.073 356.6 215.513 359.32C217.033 361.96 219.033 364 221.513 365.44C223.993 366.88 226.793 367.6 229.913 367.6ZM246.833 382V368.8L247.193 349.6L245.993 330.52V292.96H264.713V382H246.833ZM323.558 383.44C317.078 383.44 311.038 382.4 305.438 380.32C299.918 378.16 295.118 375.12 291.038 371.2C286.958 367.28 283.758 362.68 281.438 357.4C279.198 352.12 278.078 346.32 278.078 340C278.078 333.68 279.198 327.88 281.438 322.6C283.758 317.32 286.958 312.72 291.038 308.8C295.198 304.88 300.038 301.88 305.558 299.8C311.078 297.64 317.118 296.56 323.678 296.56C330.958 296.56 337.518 297.84 343.358 300.4C349.278 302.88 354.238 306.56 358.238 311.44L345.758 322.96C342.878 319.68 339.678 317.24 336.158 315.64C332.638 313.96 328.798 313.12 324.638 313.12C320.718 313.12 317.118 313.76 313.838 315.04C310.558 316.32 307.718 318.16 305.318 320.56C302.918 322.96 301.038 325.8 299.678 329.08C298.398 332.36 297.758 336 297.758 340C297.758 344 298.398 347.64 299.678 350.92C301.038 354.2 302.918 357.04 305.318 359.44C307.718 361.84 310.558 363.68 313.838 364.96C317.118 366.24 320.718 366.88 324.638 366.88C328.798 366.88 332.638 366.08 336.158 364.48C339.678 362.8 342.878 360.28 345.758 356.92L358.238 368.44C354.238 373.32 349.278 377.04 343.358 379.6C337.518 382.16 330.918 383.44 323.558 383.44ZM409.178 382V369.4L407.978 366.64V344.08C407.978 340.08 406.738 336.96 404.258 334.72C401.858 332.48 398.138 331.36 393.098 331.36C389.658 331.36 386.258 331.92 382.898 333.04C379.618 334.08 376.818 335.52 374.498 337.36L367.778 324.28C371.298 321.8 375.538 319.88 380.498 318.52C385.458 317.16 390.498 316.48 395.618 316.48C405.458 316.48 413.098 318.8 418.538 323.44C423.978 328.08 426.698 335.32 426.698 345.16V382H409.178ZM389.498 382.96C384.458 382.96 380.138 382.12 376.538 380.44C372.938 378.68 370.178 376.32 368.258 373.36C366.338 370.4 365.378 367.08 365.378 363.4C365.378 359.56 366.298 356.2 368.138 353.32C370.058 350.44 373.058 348.2 377.138 346.6C381.218 344.92 386.538 344.08 393.098 344.08H410.258V355H395.138C390.738 355 387.698 355.72 386.018 357.16C384.418 358.6 383.618 360.4 383.618 362.56C383.618 364.96 384.538 366.88 386.378 368.32C388.298 369.68 390.898 370.36 394.178 370.36C397.298 370.36 400.098 369.64 402.578 368.2C405.058 366.68 406.858 364.48 407.978 361.6L410.858 370.24C409.498 374.4 407.018 377.56 403.418 379.72C399.818 381.88 395.178 382.96 389.498 382.96ZM481.8 382.96C476.12 382.96 471.24 381.76 467.16 379.36C463.08 376.96 459.96 373.32 457.8 368.44C455.64 363.48 454.56 357.24 454.56 349.72C454.56 342.12 455.68 335.88 457.92 331C460.24 326.12 463.44 322.48 467.52 320.08C471.6 317.68 476.36 316.48 481.8 316.48C487.88 316.48 493.32 317.84 498.12 320.56C503 323.28 506.84 327.12 509.64 332.08C512.52 337.04 513.96 342.92 513.96 349.72C513.96 356.44 512.52 362.28 509.64 367.24C506.84 372.2 503 376.08 498.12 378.88C493.32 381.6 487.88 382.96 481.8 382.96ZM443.64 382V292.96H462.36V330.52L461.16 349.6L461.52 368.8V382H443.64ZM478.56 367.6C481.68 367.6 484.44 366.88 486.84 365.44C489.32 364 491.28 361.96 492.72 359.32C494.24 356.6 495 353.4 495 349.72C495 345.96 494.24 342.76 492.72 340.12C491.28 337.48 489.32 335.44 486.84 334C484.44 332.56 481.68 331.84 478.56 331.84C475.44 331.84 472.64 332.56 470.16 334C467.68 335.44 465.72 337.48 464.28 340.12C462.84 342.76 462.12 345.96 462.12 349.72C462.12 353.4 462.84 356.6 464.28 359.32C465.72 361.96 467.68 364 470.16 365.44C472.64 366.88 475.44 367.6 478.56 367.6Z" fill="#261CDD"/>
</svg>
